<svg xmlns="http://www.w3.org/2000/svg" viewBox="0 0 550 550"><rect width="550" height="550" rx="180" style="fill:#fff8ea"/><path d="M264.4,242.4,75.9,350c-12.5,7.2-12.5,23.9,0,31L264.4,488.6a21.6,21.6,0,0,0,21.2,0L474.1,381c12.5-7.1,12.5-23.8,0-31L285.6,242.4A22.2,22.2,0,0,0,264.4,242.4Z" style="fill:#fec35c"/><path d="M264.4,182.1,75.9,289.7c-12.5,7.1-12.5,23.8,0,31L264.4,428.2a21.6,21.6,0,0,0,21.2,0L474.1,320.7c12.5-7.2,12.5-23.9,0-31L285.6,182.1A21.6,21.6,0,0,0,264.4,182.1Z" style="fill:#bf9882"/><path d="M264.4,121.8,75.9,229.3c-12.5,7.2-12.5,23.9,0,31L264.4,367.9a21.6,21.6,0,0,0,21.2,0L474.1,260.3c12.5-7.1,12.5-23.8,0-31L285.6,121.8A21.6,21.6,0,0,0,264.4,121.8Z" style="fill:#877597"/><path d="M264.4,61.4,75.9,169c-12.5,7.1-12.5,23.8,0,31L264.4,307.6a22.2,22.2,0,0,0,21.2,0L474.1,200c12.5-7.2,12.5-23.9,0-31L285.6,61.4A21.6,21.6,0,0,0,264.4,61.4Z" style="fill:#4d58a7"/></svg>