<svg xmlns="http://www.w3.org/2000/svg" viewBox="0 0 550 550"><rect width="550" height="550" rx="275" style="fill:#fff8ea"/><path d="M266.4,248.5,112.7,336.1c-10.2,5.9-10.2,19.5,0,25.3l153.7,87.7a17.6,17.6,0,0,0,17.2,0l153.7-87.7c10.2-5.8,10.2-19.4,0-25.3L283.6,248.5A17.6,17.6,0,0,0,266.4,248.5Z" style="fill:#fec35c"/><path d="M266.4,199.3,112.7,286.9c-10.2,5.9-10.2,19.5,0,25.3l153.7,87.7a17.6,17.6,0,0,0,17.2,0l153.7-87.7c10.2-5.8,10.2-19.4,0-25.3L283.6,199.3A17.6,17.6,0,0,0,266.4,199.3Z" style="fill:#bf9882"/><path d="M266.4,150.1,112.7,237.8c-10.2,5.8-10.2,19.4,0,25.3l153.7,87.6a17.6,17.6,0,0,0,17.2,0l153.7-87.6c10.2-5.9,10.2-19.5,0-25.3L283.6,150.1A17.6,17.6,0,0,0,266.4,150.1Z" style="fill:#877597"/><path d="M266.4,100.9,112.7,188.6c-10.2,5.8-10.2,19.4,0,25.3l153.7,87.6a17.6,17.6,0,0,0,17.2,0l153.7-87.6c10.2-5.9,10.2-19.5,0-25.3L283.6,100.9A17.6,17.6,0,0,0,266.4,100.9Z" style="fill:#4d58a7"/></svg>